<?xml version="1.0" standalone="no"?>
<!DOCTYPE svg PUBLIC "-//W3C//DTD SVG 20010904//EN"
 "http://www.w3.org/TR/2001/REC-SVG-20010904/DTD/svg10.dtd">
<svg version="1.0" xmlns="http://www.w3.org/2000/svg"
 width="512.000000pt" height="512.000000pt" viewBox="0 0 512.000000 512.000000"
 preserveAspectRatio="xMidYMid meet">
<metadata>
Created by potrace 1.14, written by Peter Selinger 2001-2017
</metadata>
<g transform="translate(0.000000,512.000000) scale(0.100000,-0.100000)"
fill="#000000" stroke="none">
<path d="M2704 4093 c-66 -155 -78 -221 -50 -288 8 -18 40 -71 70 -116 91
-133 98 -202 27 -269 -36 -34 -66 -51 -221 -124 -97 -45 -195 -142 -205 -202
-10 -57 -13 -64 -30 -64 -9 0 -41 -16 -71 -35 l-55 -35 8 52 c13 84 9 170 -10
220 -21 53 -120 154 -185 187 l-43 22 30 35 c46 52 42 113 -12 172 -27 29 -40
28 -93 -8 -63 -44 -78 -78 -70 -161 7 -79 -3 -93 -38 -52 -20 23 -32 28 -69
28 -37 0 -52 -6 -76 -29 -40 -38 -44 -101 -8 -134 20 -19 23 -29 19 -80 -4
-52 -1 -61 23 -90 15 -18 45 -42 67 -53 42 -22 118 -86 118 -100 0 -5 -14 -9
-32 -9 -17 0 -58 -5 -91 -12 l-59 -12 -59 66 c-33 37 -88 84 -123 107 -43 27
-66 48 -70 66 -22 88 -237 218 -331 201 -85 -16 -110 -77 -103 -248 4 -91 11
-127 33 -186 15 -40 25 -76 21 -79 -3 -3 -17 -1 -31 5 -14 7 -39 12 -55 12
-29 0 -30 -2 -30 -45 0 -25 7 -62 15 -82 21 -50 20 -53 -25 -53 -35 0 -43 -5
-60 -32 -73 -120 59 -455 248 -630 64 -59 180 -140 225 -157 18 -7 27 -18 27
-32 0 -27 131 -307 176 -374 108 -163 275 -288 448 -336 64 -17 96 -20 160
-16 45 3 92 9 106 12 20 5 43 -5 105 -46 113 -74 150 -89 222 -89 135 0 280
60 372 154 l44 45 26 -18 c14 -10 50 -26 80 -36 107 -35 303 -2 428 71 141 82
251 244 261 384 3 40 10 73 16 75 6 1 47 10 91 19 261 55 426 132 433 202 2
25 -5 38 -42 72 -25 23 -55 42 -66 42 -26 0 -26 3 11 56 47 69 92 172 97 223
3 41 0 49 -26 74 -28 27 -30 32 -25 88 7 68 -5 89 -48 89 -16 0 -49 -10 -73
-22 l-45 -22 -21 27 c-20 25 -27 26 -118 29 l-97 3 -5 76 c-8 128 -66 189
-180 189 -49 0 -52 2 -62 33 -17 49 -92 189 -136 254 -72 106 -76 118 -61 184
12 53 15 58 34 52 94 -30 167 -30 225 0 83 41 108 111 74 209 -18 55 -81 131
-101 124 -8 -3 -11 -1 -8 4 4 6 -10 17 -30 26 -42 17 -121 15 -118 -3 2 -7 -3
-10 -11 -7 -19 7 -116 -85 -137 -131 -29 -63 -25 -118 12 -160 l31 -35 -39
-47 c-22 -27 -51 -65 -64 -85 l-25 -37 -11 53 c-6 29 -28 88 -48 131 -32 67
-58 99 -169 214 -194 201 -246 292 -246 431 0 52 -4 71 -18 83 -26 24 -30 22
-48 -20z"/>
<path d="M3902 2818 c-7 -7 -12 -26 -12 -43 0 -17 5 -36 12 -43 30 -30 88 1
88 46 0 38 -62 66 -88 40z"/>
<path d="M842 1481 c-68 -32 -101 -59 -122 -101 -26 -50 -25 -93 1 -146 26
-55 131 -153 195 -184 96 -45 259 -34 311 22 102 109 49 318 -101 395 -71 37
-219 44 -284 14z"/>
<path d="M3769 1177 c-109 -72 -121 -295 -19 -337 19 -8 60 -11 113 -8 133 7
187 46 187 135 -1 58 -58 172 -80 158 -4 -3 -14 3 -21 13 -13 16 -13 16 6 2
19 -14 19 -14 5 4 -20 26 -88 56 -126 56 -17 0 -46 -10 -65 -23z"/>
<path d="M1304 956 c-3 -8 -4 -25 -2 -38 2 -18 9 -23 33 -23 28 0 30 3 30 35
0 31 -3 35 -28 38 -17 2 -29 -2 -33 -12z"/>
</g>
</svg>
